# xmcd CD database file
#
# Track frame offsets:
#	150
#	15260
#	37989
#	71535
#	102823
#	130456
#	159231
#	181805
#	201201
#
# Disc length: 3020 seconds
#
# Revision: 0
# Processed by: cddbd v1.5.1PL2 Copyright (c) Steve Scherf et al.
# Submitted via: CDex 1.51
#
DISCID=680bca09
DTITLE=Landolf, Domenic - Wanderlust
DYEAR=1900
DGENRE=Jazz
TTITLE0=Demonic
TTITLE1=I-Song
TTITLE2=Favour Sharps
TTITLE3=Wanderlust
TTITLE4=Penthesilea
TTITLE5=Stones From The West
TTITLE6=Bossa North
TTITLE7=Another Hero
TTITLE8=Declare
EXTD=
EXTT0=
EXTT1=
EXTT2=
EXTT3=
EXTT4=
EXTT5=
EXTT6=
EXTT7=
EXTT8=
PLAYORDER=
